<svg width="31" height="35" fill="none" xmlns="http://www.w3.org/2000/svg"><g clip-path="url(#a)"><path d="M26.25 19.94v-3.103H24v3.58c-.004.156.024.312.082.456.058.145.146.274.255.379l3.038 3.222v1.909H2.625v-1.91l3.037-3.221c.11-.105.197-.234.255-.378.059-.145.087-.3.083-.457V14.45c0-2.532.948-4.96 2.636-6.75 1.688-1.79 3.977-2.796 6.364-2.796 1.582 0 3.136.45 4.5 1.3V3.474a10.435 10.435 0 0 0-3.375-.954V.133h-2.25v2.386c-2.77.335-5.33 1.733-7.194 3.931-1.865 2.198-2.908 5.044-2.931 8v5.49L.712 23.16c-.11.105-.196.234-.255.378-.058.144-.086.3-.082.457v3.58c-.01.16.012.319.065.468.053.15.136.286.242.399.107.113.235.2.376.257.14.056.292.08.442.069h7.875c0 1.582.592 3.1 1.647 4.218 1.055 1.12 2.486 1.748 3.978 1.748s2.922-.629 3.977-1.748c1.055-1.118 1.648-2.636 1.648-4.218H28.5c.15.01.3-.013.442-.07.14-.056.269-.143.375-.256a1.13 1.13 0 0 0 .242-.399c.053-.149.076-.309.066-.468v-3.58a1.146 1.146 0 0 0-.082-.457 1.088 1.088 0 0 0-.256-.378l-3.037-3.222ZM15 32.348a3.28 3.28 0 0 1-2.387-1.049 3.692 3.692 0 0 1-.988-2.531h6.75c0 .95-.356 1.86-.989 2.531A3.28 3.28 0 0 1 15 32.35Z" fill="url(#b)"/><path d="M26.25 13.258c2.485 0 4.5-2.137 4.5-4.773 0-2.636-2.015-4.773-4.5-4.773s-4.5 2.137-4.5 4.773c0 2.636 2.015 4.773 4.5 4.773Z" fill="url(#c)"/></g><defs><linearGradient id="b" x1=".373" y1=".133" x2="26.242" y2=".133" gradientUnits="userSpaceOnUse"><stop stop-color="#FE5C28"/><stop offset="1" stop-color="#FF8B36" stop-opacity=".9"/></linearGradient><linearGradient id="c" x1="21.75" y1="3.712" x2="29.709" y2="3.712" gradientUnits="userSpaceOnUse"><stop stop-color="#FE5C28"/><stop offset="1" stop-color="#FF8B36" stop-opacity=".9"/></linearGradient><clipPath id="a"><path fill="#fff" d="M0 0h31v35H0z"/></clipPath></defs></svg>