<svg width="18" height="20" fill="none" xmlns="http://www.w3.org/2000/svg"><path d="M4.111 8.611h1.556v1.667H4.11V8.611ZM15 4.445V16.11c0 .917-.7 1.667-1.556 1.667H2.556c-.413 0-.809-.176-1.1-.488A1.729 1.729 0 0 1 1 16.11l.008-11.666c0-.917.684-1.667 1.548-1.667h.777V1.111H4.89v1.667h6.222V1.111h1.556v1.667h.777c.856 0 1.556.75 1.556 1.667ZM2.556 6.11h10.888V4.445H2.556V6.11Zm10.888 10V7.778H2.556v8.333h10.888Zm-3.11-5.833h1.555V8.611h-1.556v1.667Zm-3.112 0h1.556V8.611H7.222v1.667Z" fill="#7688A4"/></svg>