<svg width="38" height="43" fill="none" xmlns="http://www.w3.org/2000/svg"><path d="M0 21.41c0 4.21 1.114 8.327 3.202 11.828 2.088 3.501 5.055 6.23 8.527 7.841 3.472 1.612 7.292 2.033 10.978 1.212 3.685-.822 7.07-2.85 9.728-5.827 2.657-2.977 4.467-6.77 5.2-10.9.733-4.13.357-8.411-1.081-12.302-1.438-3.89-3.874-7.215-6.998-9.554C26.43 1.368 22.758.12 19 .12c-5.04 0-9.872 2.243-13.435 6.236C2.002 10.348 0 15.763 0 21.41Zm31.418 11.785L8.482 7.495c3.122-2.912 7.103-4.411 11.162-4.204 4.058.208 7.9 2.107 10.773 5.326 2.872 3.219 4.567 7.524 4.753 12.072.185 4.547-1.153 9.008-3.752 12.506ZM8.468 35.34c-3.286-3.128-5.332-7.588-5.688-12.403-.356-4.815 1.006-9.591 3.789-13.282L29.49 35.339c-2.94 2.784-6.663 4.31-10.511 4.31-3.848 0-7.572-1.526-10.511-4.31Z" fill="#000"/></svg>